<?xml version="1.0" encoding="UTF-8" standalone="no"?>
<svg
   xmlns:dc="http://purl.org/dc/elements/1.1/"
   xmlns:cc="http://creativecommons.org/ns#"
   xmlns:rdf="http://www.w3.org/1999/02/22-rdf-syntax-ns#"
   xmlns:svg="http://www.w3.org/2000/svg"
   xmlns="http://www.w3.org/2000/svg"
   xmlns:xlink="http://www.w3.org/1999/xlink"
   xmlns:sodipodi="http://sodipodi.sourceforge.net/DTD/sodipodi-0.dtd"
   xmlns:inkscape="http://www.inkscape.org/namespaces/inkscape"
   version="1.1"
   id="svg2029"
   width="721"
   height="659"
   viewBox="0 0 721 659"
   sodipodi:docname="ascending-vasa-recta.svg"
   inkscape:version="1.0.2 (e86c870, 2021-01-15)">
  <metadata
     id="metadata2035">
    <rdf:RDF>
      <cc:Work
         rdf:about="">
        <dc:format>image/svg+xml</dc:format>
        <dc:type
           rdf:resource="http://purl.org/dc/dcmitype/StillImage" />
        <dc:title></dc:title>
      </cc:Work>
    </rdf:RDF>
  </metadata>
  <defs
     id="defs2033" />
  <sodipodi:namedview
     pagecolor="#ffffff"
     bordercolor="#666666"
     borderopacity="1"
     objecttolerance="10"
     gridtolerance="10"
     guidetolerance="10"
     inkscape:pageopacity="0"
     inkscape:pageshadow="2"
     inkscape:window-width="1920"
     inkscape:window-height="1043"
     id="namedview2031"
     showgrid="false"
     inkscape:zoom="2.585736"
     inkscape:cx="366.87339"
     inkscape:cy="388.39964"
     inkscape:window-x="1920"
     inkscape:window-y="0"
     inkscape:window-maximized="1"
     inkscape:current-layer="g2037" />
  <g
     inkscape:groupmode="layer"
     inkscape:label="Image"
     id="g2037">
    <image
       sodipodi:absref="/home/alex/proj/KPMP/microscopium-web/public/atlas/img/schematic/schematic-base.png"
       xlink:href="schematic-base.png"
       id="image2039"
       preserveAspectRatio="none"
       height="659"
       width="721" />
    <ellipse
       style="opacity:0;fill:#ffff00"
       id="path2041"
       cx="341.30795"
       cy="412.75299"
       rx="10.852432"
       ry="98.163666" />
    <path
       style="fill:#ffff00;stroke:#000000;stroke-width:1px;stroke-linecap:butt;stroke-linejoin:miter;stroke-opacity:1"
       d="m 332.57737,306.47184 c 1.8979,180.50144 7.04842,189.47231 7.04842,189.47231 l 29.89395,37.8855 9.95423,0.81025 1.95578,-8.55167 -18.66791,-22.0244 7.57707,-7.62123 15.31775,10.97657 0.77348,-10.3628 -8.30843,-8.7923 10.88661,-14.66275 0.0261,-18.66891 -23.9285,-1.00893 -16.15477,-8.64048 -0.88404,-8.83112 37.6758,-10.24292 2.32731,-10.87813 c 0,0 -5.19517,4.64374 -6.77535,4.2699 -1.58019,-0.37385 -25.85464,-9.17481 -25.85464,-9.17481 l -6.84636,-8.15849 -1.35575,-68.47804 21.22767,26.5741 18.85976,11.97194 1.03765,-11.68225 -9.43842,-4.89384 -29.51703,-36.77999 -0.82729,-15.42363 z"
       id="path2047" />
  </g>
</svg>
